<svg width="2385" height="300" viewBox="0 0 2385 300" fill="none" xmlns="http://www.w3.org/2000/svg">
<path fill-rule="evenodd" clip-rule="evenodd" d="M42.1741 177.128C36.593 204.423 3.47776 198.288 0.251536 177.686L0 2H423.954C522.821 5.47571 500.61 71.2771 503.184 176.934C503.758 200.436 462.041 201.848 461.179 177.981C459.874 141.885 463.919 93.5977 459.389 65.6313C457.361 53.129 451.676 47.2789 437.509 44.5474C284.724 44.1025 213.51 42.7531 42.5351 45.0689L42.1741 177.128Z" fill="#FF9545"/>
<path fill-rule="evenodd" clip-rule="evenodd" d="M20.4862 225.798C7.09652 227.107 1.02319 234.715 0.961213 247.524C0.906534 259.008 8.9885 265.209 16.4215 267.561C61.432 266.27 101.612 266.332 148.769 267.112C165.338 267.386 185.213 252.082 193.481 238.337L251.557 141.776L311.798 240.317C322.278 257.696 336.495 264.512 349.174 266.711H485.925C504.869 266.711 509.114 226.265 481.076 227.537L365.342 226.119C357.85 225.918 350.246 223.351 345.995 216.439L269.368 86.3429C259.726 73.6654 248.746 62.8515 229.793 93.3819L162.516 209.521C161.951 213.945 145.635 224.915 137.454 225.357L20.4862 225.798Z" fill="#0094DE"/>
<path d="M667.148 234H622.148V24H804.848V234H760.148V64.5H667.148V234ZM881.885 111C893.685 94.2 911.085 85.8 934.085 85.8C955.885 85.8 972.985 93.3 985.385 108.3C997.985 123.1 1004.29 141 1004.29 162C1004.29 183 997.985 201 985.385 216C972.985 230.8 955.885 238.2 934.085 238.2C914.285 238.2 898.485 231.7 886.685 218.7V300H844.985V90H881.885V111ZM951.485 191.4C958.285 183.4 961.685 173.6 961.685 162C961.685 150.4 958.285 140.7 951.485 132.9C944.685 124.9 935.485 120.9 923.885 120.9C915.285 120.9 907.585 123.2 900.785 127.8C894.185 132.4 889.385 138.1 886.385 144.9V179.1C889.385 185.9 894.185 191.6 900.785 196.2C907.585 200.8 915.285 203.1 923.885 203.1C935.485 203.1 944.685 199.2 951.485 191.4ZM1046.61 218.1C1031.21 204.7 1023.51 186 1023.51 162C1023.51 138 1031.21 119.3 1046.61 105.9C1062.01 92.5 1080.81 85.8 1103.01 85.8C1125.41 85.8 1144.21 92.5 1159.41 105.9C1174.81 119.3 1182.51 138 1182.51 162C1182.51 186 1174.81 204.7 1159.41 218.1C1144.21 231.5 1125.41 238.2 1103.01 238.2C1080.81 238.2 1062.01 231.5 1046.61 218.1ZM1130.31 190.2C1136.91 182.8 1140.21 173.4 1140.21 162C1140.21 150.6 1136.91 141.3 1130.31 134.1C1123.71 126.7 1114.61 123 1103.01 123C1091.41 123 1082.31 126.7 1075.71 134.1C1069.31 141.3 1066.11 150.6 1066.11 162C1066.11 173.4 1069.31 182.8 1075.71 190.2C1082.31 197.4 1091.41 201 1103.01 201C1114.61 201 1123.71 197.4 1130.31 190.2ZM1250.23 234H1209.73V90H1249.63L1294.33 161.4L1339.33 90H1378.93V234H1338.73V149.1L1304.83 202.8H1284.13L1250.23 149.1V234Z" fill="#0094DE"/>
<path d="M1478.12 123C1476.92 140.6 1475.22 155.8 1473.02 168.6C1471.02 181.2 1468.02 193 1464.02 204C1460.02 214.8 1454.62 223 1447.82 228.6C1441.02 234.2 1432.82 237 1423.22 237C1415.82 237 1408.22 235.6 1400.42 232.8V199.8C1403.42 201 1406.32 201.6 1409.12 201.6C1419.52 201.6 1426.82 192.3 1431.02 173.7C1435.22 155.1 1438.12 127.2 1439.72 90H1556.72V234H1515.02V123H1478.12ZM1628.36 234H1592.06V90H1633.76V171L1697.96 90H1733.96V234H1692.56V153L1628.36 234ZM1887.5 194.1C1887.5 206.3 1881.5 216.7 1869.5 225.3C1857.5 233.7 1839.9 237.9 1816.7 237.9C1795.1 237.9 1776.8 234 1761.8 226.2V192.9C1767.6 196.1 1775.2 199 1784.6 201.6C1794 204 1802.9 205.2 1811.3 205.2C1833.7 205.2 1844.9 199.8 1844.9 189C1844.9 183.4 1842.4 179.7 1837.4 177.9C1832.6 175.9 1825.9 174.9 1817.3 174.9H1790.6V147.3H1817.3C1833.7 147.3 1841.9 142.8 1841.9 133.8C1841.9 123.6 1832.5 118.5 1813.7 118.5C1805.7 118.5 1797 119.7 1787.6 122.1C1778.2 124.5 1770.5 127.3 1764.5 130.5V97.5C1779.5 89.5 1797.6 85.5 1818.8 85.5C1841.8 85.5 1858.5 89.7 1868.9 98.1C1879.3 106.3 1884.5 116.4 1884.5 128.4C1884.5 136.6 1882.2 143.4 1877.6 148.8C1873.2 154.2 1867.4 157.9 1860.2 159.9C1878.4 165.5 1887.5 176.9 1887.5 194.1ZM1951.79 234H1915.49V90H1957.19V171L2021.39 90H2057.39V234H2015.99V153L1951.79 234ZM2134.44 234H2092.74V90H2134.44V144.6H2192.64V90H2234.34V234H2192.64V179.4H2134.44V234ZM2311.39 234H2269.69V90H2379.49V125.1H2311.39V234Z" fill="#0069A1"/>
</svg>
